<svg width="658" height="123" viewBox="0 0 658 123" fill="none" xmlns="http://www.w3.org/2000/svg">
<path d="M6.75439 13.5396L1 1V123H657V7.29604L651.246 13.3914C645.491 19.4868 633.982 31.6776 622.474 33.8564C610.965 36.0353 599.456 28.2021 587.947 24.5228C576.439 20.8435 564.93 21.3179 553.421 18.131C541.912 14.944 530.404 8.09557 518.895 5.56284C507.386 3.03011 495.877 4.81309 484.368 12.4262C472.86 20.0393 461.351 33.4825 449.842 30.4437C438.333 27.4048 426.825 7.88393 415.316 4.80078C403.807 1.71762 392.298 15.0722 380.789 16.5996C369.281 18.127 357.772 7.82717 346.263 11.2724C334.754 14.7176 323.246 31.9079 311.737 43.0287C300.228 54.1494 288.719 59.2005 277.211 59.7745C265.702 60.3485 254.193 56.4453 242.684 50.2995C231.175 44.1537 219.667 35.7653 208.158 38.7345C196.649 41.7038 185.14 56.0306 173.632 53.7179C162.123 51.4053 150.614 32.4532 139.105 19.1945C127.596 5.93572 116.088 -1.62965 104.579 2.77292C93.0702 7.17548 81.5614 23.546 70.0526 37.7847C58.5439 52.0234 47.0351 64.1304 35.5263 57.6443C24.0175 51.1582 12.5088 26.0791 6.75439 13.5396Z" fill="url(#paint0_linear_18_961)" fill-opacity="0.5"/>
<path opacity="0.5" d="M1 68.1C1 68.1 20.9521 51.0137 35.4627 49.4588C49.9733 47.9039 49.9733 54.1059 65.6931 54.1059C81.4129 54.1059 74.1576 33.3739 98.9465 33.3739C123.735 33.3739 137.037 53.5876 153.361 54.1059C169.686 54.6242 186.01 15.2335 210.799 16.2701C235.588 17.3068 219.693 35.273 257.354 33.3739C288.128 31.822 274.888 48.9231 308.141 48.9231C334.333 48.9231 341.076 58.7018 362.556 62.9172C391.526 68.6025 408.831 53.7924 431.481 48.9231C472.776 40.0456 461.305 55.7226 496.174 50.9963C527.093 46.8053 510.08 31.3008 559.658 31.3008C592.161 31.3008 599.802 55.0896 632.211 54.1061C646.29 53.6788 657 59.3195 657 59.3195" stroke="#656575" stroke-width="1.5" stroke-linecap="round" stroke-dasharray="4 4"/>
<path d="M1 1L6.75439 13.5957C12.5088 26.1914 24.0175 51.3828 35.5263 57.898C47.0351 64.4131 58.5439 52.2519 70.0526 37.9494C81.5614 23.647 93.0702 7.20314 104.579 2.78086C116.088 -1.64143 127.596 5.95782 139.105 19.2759C150.614 32.5941 162.123 51.631 173.632 53.954C185.14 56.277 196.649 41.886 208.158 38.9035C219.667 35.921 231.175 44.347 242.684 50.5203C254.193 56.6936 265.702 60.6143 277.211 60.0377C288.719 59.4612 300.228 54.3874 311.737 43.2169C323.246 32.0464 334.754 14.7791 346.263 11.3184C357.772 7.85774 369.281 18.2037 380.789 16.6695C392.298 15.1352 403.807 1.72084 415.316 4.8178C426.825 7.91475 438.333 27.5231 449.842 30.5755C461.351 33.628 472.86 20.1245 484.368 12.4774C495.877 4.83016 507.386 3.03921 518.895 5.58328C530.403 8.12735 541.912 15.0064 553.421 18.2077C564.93 21.4089 576.439 20.9323 587.947 24.6281C599.456 28.3239 610.965 36.1922 622.474 34.0036C633.982 31.815 645.491 19.5696 651.246 13.4469L657 7.32424" stroke="#006AFF" stroke-opacity="0.8" stroke-width="1.5" stroke-linecap="round"/>
<defs>
<linearGradient id="paint0_linear_18_961" x1="329" y1="-27.4667" x2="329" y2="134.183" gradientUnits="userSpaceOnUse">
<stop stop-color="#006AFF"/>
<stop offset="1" stop-color="#D9D9D9" stop-opacity="0"/>
</linearGradient>
</defs>
</svg>
