<svg width="192" height="78" viewBox="0 0 192 78" fill="none" xmlns="http://www.w3.org/2000/svg">
<g clip-path="url(#clip0_18_859)">
<path fill-rule="evenodd" clip-rule="evenodd" d="M48 24C47.5967 24 47.2986 24 47.0005 24C44.4577 24 41.9325 24.0355 39.3898 24C37.1627 23.9644 35.5493 24.9425 34.4621 26.8808C32.3227 30.6686 30.1657 34.4564 28.0088 38.2442C28.4998 39.0978 28.9908 39.9514 29.4818 40.8227C30.6743 42.9211 32.9189 43.9703 35.146 43.3657C36.0579 43.1167 36.8996 42.5477 37.7414 42.1387C37.7414 42.1387 37.7414 42.1387 37.7414 42.1564C41.0382 36.377 44.3174 30.5975 47.6142 24.818C47.7194 24.569 47.8247 24.3378 48 24Z" fill="#006AFF"/>
<path d="M35.1285 43.3479C32.9014 43.9526 30.6567 42.9034 29.4643 40.805C28.9733 39.9514 28.4822 39.0978 27.9912 38.2264C25.8343 34.4386 23.6773 30.6686 21.5379 26.8808C20.4507 24.9425 18.8374 23.9822 16.6103 24.0178C14.0675 24.0533 11.5423 24.0178 8.99956 24.0178C8.70145 24.0178 8.40333 24.0178 8 24.0178C8.17536 24.3556 8.28058 24.5868 8.42087 24.8002C11.7352 30.6331 15.0671 36.4659 18.3814 42.2987C20.0473 45.2152 21.7133 48.1494 23.3792 51.0658C24.1859 52.4884 25.3433 53.3954 26.5883 53.7866C28.7628 54.4623 31.2354 53.5554 32.6559 51.0658C34.3569 48.096 36.0403 45.1085 37.7413 42.1387C37.7413 42.1387 37.7413 42.1387 37.7413 42.1209C36.8821 42.5299 36.0579 43.099 35.1285 43.3479Z" fill="white"/>
</g>
<path d="M70.3274 35.7109H66.2834C66.2095 35.1877 66.0587 34.723 65.831 34.3168C65.6032 33.9044 65.3108 33.5535 64.9538 33.2642C64.5968 32.9749 64.1844 32.7533 63.7166 32.5994C63.255 32.4455 62.7533 32.3686 62.2116 32.3686C61.233 32.3686 60.3804 32.6117 59.6541 33.098C58.9278 33.5781 58.3646 34.2798 57.9645 35.2031C57.5644 36.1203 57.3643 37.2344 57.3643 38.5455C57.3643 39.8935 57.5644 41.026 57.9645 41.9432C58.3707 42.8603 58.937 43.5528 59.6634 44.0206C60.3897 44.4884 61.2299 44.7223 62.1839 44.7223C62.7195 44.7223 63.215 44.6515 63.6705 44.5099C64.1321 44.3684 64.5414 44.1622 64.8984 43.8913C65.2554 43.6143 65.5509 43.2789 65.7848 42.8849C66.0249 42.491 66.1911 42.0417 66.2834 41.5369L70.3274 41.5554C70.2228 42.4233 69.9612 43.2604 69.5426 44.0668C69.1302 44.867 68.5732 45.584 67.8714 46.218C67.1759 46.8459 66.3449 47.3445 65.3786 47.7138C64.4183 48.0769 63.3319 48.2585 62.1193 48.2585C60.4328 48.2585 58.9247 47.8769 57.5952 47.1136C56.2718 46.3504 55.2254 45.2455 54.456 43.799C53.6927 42.3525 53.3111 40.6013 53.3111 38.5455C53.3111 36.4834 53.6989 34.7292 54.4744 33.2827C55.25 31.8362 56.3026 30.7344 57.6321 29.9773C58.9616 29.214 60.4574 28.8324 62.1193 28.8324C63.215 28.8324 64.2306 28.9863 65.1662 29.294C66.108 29.6018 66.942 30.0511 67.6683 30.642C68.3946 31.2268 68.9856 31.9439 69.4411 32.7933C69.9027 33.6428 70.1982 34.6153 70.3274 35.7109ZM76.098 48H71.8139L78.3416 29.0909H83.4936L90.0121 48H85.728L80.9915 33.4119H80.8438L76.098 48ZM75.8303 40.5675H85.9496V43.6882H75.8303V40.5675ZM92.288 48V29.0909H99.7482C101.176 29.0909 102.395 29.3464 103.404 29.8572C104.42 30.362 105.193 31.0791 105.722 32.0085C106.257 32.9318 106.525 34.0182 106.525 35.2678C106.525 36.5234 106.254 37.6037 105.713 38.5085C105.171 39.4072 104.386 40.0966 103.358 40.5767C102.337 41.0568 101.099 41.2969 99.6467 41.2969H94.6516V38.0838H99.0004C99.7636 38.0838 100.398 37.9792 100.902 37.7699C101.407 37.5606 101.783 37.2467 102.029 36.8281C102.281 36.4096 102.407 35.8894 102.407 35.2678C102.407 34.6399 102.281 34.1106 102.029 33.6797C101.783 33.2488 101.404 32.9226 100.893 32.701C100.388 32.4732 99.7513 32.3594 98.9819 32.3594H96.2859V48H92.288ZM102.5 39.3949L107.199 48H102.786L98.1879 39.3949H102.5ZM115.368 48V29.0909H122.828C124.256 29.0909 125.475 29.3464 126.485 29.8572C127.5 30.362 128.273 31.0791 128.802 32.0085C129.338 32.9318 129.605 34.0182 129.605 35.2678C129.605 36.5234 129.334 37.6037 128.793 38.5085C128.251 39.4072 127.466 40.0966 126.438 40.5767C125.417 41.0568 124.179 41.2969 122.727 41.2969H117.732V38.0838H122.08C122.844 38.0838 123.478 37.9792 123.982 37.7699C124.487 37.5606 124.863 37.2467 125.109 36.8281C125.361 36.4096 125.487 35.8894 125.487 35.2678C125.487 34.6399 125.361 34.1106 125.109 33.6797C124.863 33.2488 124.484 32.9226 123.973 32.701C123.468 32.4732 122.831 32.3594 122.062 32.3594H119.366V48H115.368ZM125.58 39.3949L130.279 48H125.866L121.268 39.3949H125.58ZM132.431 48V29.0909H145.172V32.3871H136.428V36.8928H144.517V40.1889H136.428V44.7038H145.209V48H132.431ZM164.167 29.0909V48H160.713L152.487 36.0987H152.348V48H148.35V29.0909H151.859L160.021 40.983H160.187V29.0909H164.167ZM166.749 32.3871V29.0909H182.279V32.3871H176.49V48H172.539V32.3871H166.749Z" fill="white"/>
<defs>
<clipPath id="clip0_18_859">
<rect width="40" height="30" fill="white" transform="translate(8 24)"/>
</clipPath>
</defs>
</svg>
